<svg xmlns="http://www.w3.org/2000/svg" width="1280" height="720" viewBox="0 0 1280 720">
  <defs>
    <linearGradient id="bg" x1="0" y1="0" x2="1" y2="1">
      <stop offset="0%" stop-color="#0f2b46"/>
      <stop offset="100%" stop-color="#1f6a8a"/>
    </linearGradient>
  </defs>
  <rect width="1280" height="720" fill="url(#bg)"/>
  <g fill="none" stroke="#d4efff" stroke-width="4" opacity="0.9">
    <rect x="120" y="120" width="220" height="90" rx="14"/>
    <rect x="420" y="120" width="220" height="90" rx="14"/>
    <rect x="720" y="120" width="220" height="90" rx="14"/>
    <rect x="270" y="310" width="220" height="90" rx="14"/>
    <rect x="570" y="310" width="220" height="90" rx="14"/>
    <rect x="870" y="310" width="220" height="90" rx="14"/>
    <path d="M340 165 L420 165"/>
    <path d="M640 165 L720 165"/>
    <path d="M530 210 L410 310"/>
    <path d="M830 210 L710 310"/>
    <path d="M490 355 L570 355"/>
    <path d="M790 355 L870 355"/>
  </g>
  <g fill="#ffffff" font-family="Source Sans Pro, Arial, sans-serif" text-anchor="middle">
    <text x="640" y="560" font-size="46" font-weight="700">Reingeniería de Procesos</text>
    <text x="640" y="604" font-size="30" opacity="0.9">Análisis y Optimización de Negocios</text>
  </g>
</svg>